<svg width="495" height="392" viewBox="0 0 495 392" fill="none" xmlns="http://www.w3.org/2000/svg">
<rect x="44" y="246" width="31" height="31" rx="4.13333" fill="#353940"/>
<rect x="81" y="210" width="31" height="31" rx="4.13333" fill="#353940"/>
<rect x="330" y="267" width="31" height="31" rx="4.13333" fill="#353940"/>
<rect x="174" y="245" width="31" height="31" rx="4.13333" fill="#353940"/>
<rect x="257" y="200" width="31" height="31" rx="4.13333" fill="#353940"/>
<rect x="257" y="236" width="31" height="31" rx="4.13333" fill="#353940"/>
<rect x="44" y="282.167" width="31" height="31" rx="4.13333" fill="#353940"/>
<rect x="81" y="246.167" width="31" height="31" rx="4.13333" fill="#353940"/>
<rect x="174" y="281.167" width="31" height="31" rx="4.13333" fill="#353940"/>
<rect x="208" y="282" width="31" height="31" rx="4.13333" fill="#353940"/>
<rect x="29" y="125" width="31" height="31" rx="4.13333" fill="#353940"/>
<rect x="280" y="33" width="31" height="31" rx="4.13333" fill="#353940"/>
<rect x="464" y="94" width="31" height="31" rx="4.13333" fill="#353940"/>
<rect x="324" y="79" width="31" height="31" rx="4.13333" fill="#353940"/>
<rect x="419" y="13" width="31" height="31" rx="4.13333" fill="#353940"/>
<rect x="419" y="49" width="31" height="31" rx="4.13333" fill="#353940"/>
<rect x="324" y="115.167" width="31" height="31" rx="4.13333" fill="#353940"/>
<rect x="358" y="116" width="31" height="31" rx="4.13333" fill="#353940"/>
<rect x="148" y="40" width="31" height="31" rx="4.13333" fill="#353940"/>
<rect x="185" y="4" width="31" height="31" rx="4.13333" fill="#353940"/>
<rect x="148" y="76.1666" width="31" height="31" rx="4.13333" fill="#353940"/>
<rect x="185" y="40.1666" width="31" height="31" rx="4.13333" fill="#353940"/>
<rect x="259" y="344" width="31" height="31" rx="4.13333" fill="#353940"/>
<rect y="361" width="31" height="31" rx="4.13333" fill="#353940"/>
<rect x="89" y="353" width="31" height="31" rx="4.13333" fill="#353940"/>
</svg>
