<svg width="1329" height="321" viewBox="0 0 1329 321" fill="none" xmlns="http://www.w3.org/2000/svg">
<rect y="251" width="31" height="31" rx="4.13333" fill="#353940"/>
<rect x="37" y="215" width="31" height="31" rx="4.13333" fill="#353940"/>
<rect x="286" y="272" width="31" height="31" rx="4.13333" fill="#353940"/>
<rect x="130" y="250" width="31" height="31" rx="4.13333" fill="#353940"/>
<rect x="213" y="205" width="31" height="31" rx="4.13333" fill="#353940"/>
<rect x="213" y="241" width="31" height="31" rx="4.13333" fill="#353940"/>
<rect y="287.167" width="31" height="31" rx="4.13333" fill="#353940"/>
<rect x="37" y="251.167" width="31" height="31" rx="4.13333" fill="#353940"/>
<rect x="130" y="286.167" width="31" height="31" rx="4.13333" fill="#353940"/>
<rect x="164" y="287" width="31" height="31" rx="4.13333" fill="#353940"/>
<rect width="31" height="31" rx="4.13333" transform="matrix(0 -1 -1 0 433.167 317)" fill="#353940"/>
<rect width="31" height="31" rx="4.13333" transform="matrix(0 -1 -1 0 469.167 280)" fill="#353940"/>
<rect width="31" height="31" rx="4.13333" transform="matrix(0 -1 -1 0 412.167 31)" fill="#353940"/>
<rect width="31" height="31" rx="4.13333" transform="matrix(0 -1 -1 0 434.167 187)" fill="#353940"/>
<rect width="31" height="31" rx="4.13333" transform="matrix(0 -1 -1 0 479.167 104)" fill="#353940"/>
<rect width="31" height="31" rx="4.13333" transform="matrix(0 -1 -1 0 443.167 104)" fill="#353940"/>
<rect width="31" height="31" rx="4.13333" transform="matrix(0 -1 -1 0 397 317)" fill="#353940"/>
<rect width="31" height="31" rx="4.13333" transform="matrix(0 -1 -1 0 433 280)" fill="#353940"/>
<rect width="31" height="31" rx="4.13333" transform="matrix(0 -1 -1 0 398 187)" fill="#353940"/>
<rect width="31" height="31" rx="4.13333" transform="matrix(0 -1 -1 0 397.167 153)" fill="#353940"/>
<rect width="31" height="31" rx="4.13333" transform="matrix(-1 0 0 1 1328.17 226)" fill="#353940"/>
<rect width="31" height="31" rx="4.13333" transform="matrix(-1 0 0 1 1291.17 190)" fill="#353940"/>
<rect width="31" height="31" rx="4.13333" transform="matrix(-1 0 0 1 1042.17 247)" fill="#353940"/>
<rect width="31" height="31" rx="4.13333" transform="matrix(-1 0 0 1 1198.17 225)" fill="#353940"/>
<rect width="31" height="31" rx="4.13333" transform="matrix(-1 0 0 1 1115.17 180)" fill="#353940"/>
<rect width="31" height="31" rx="4.13333" transform="matrix(-1 0 0 1 1115.17 216)" fill="#353940"/>
<rect width="31" height="31" rx="4.13333" transform="matrix(-1 0 0 1 1328.17 262.167)" fill="#353940"/>
<rect width="31" height="31" rx="4.13333" transform="matrix(-1 0 0 1 1291.17 226.167)" fill="#353940"/>
<rect width="31" height="31" rx="4.13333" transform="matrix(-1 0 0 1 1198.17 261.167)" fill="#353940"/>
<rect width="31" height="31" rx="4.13333" transform="matrix(-1 0 0 1 1164.17 262)" fill="#353940"/>
<rect x="920" y="321" width="31" height="31" rx="4.13333" transform="rotate(-90 920 321)" fill="#353940"/>
<rect x="884" y="284" width="31" height="31" rx="4.13333" transform="rotate(-90 884 284)" fill="#353940"/>
<rect x="941" y="35" width="31" height="31" rx="4.13333" transform="rotate(-90 941 35)" fill="#353940"/>
<rect x="919" y="191" width="31" height="31" rx="4.13333" transform="rotate(-90 919 191)" fill="#353940"/>
<rect x="874" y="108" width="31" height="31" rx="4.13333" transform="rotate(-90 874 108)" fill="#353940"/>
<rect x="910" y="108" width="31" height="31" rx="4.13333" transform="rotate(-90 910 108)" fill="#353940"/>
<rect x="956.167" y="321" width="31" height="31" rx="4.13333" transform="rotate(-90 956.167 321)" fill="#353940"/>
<rect x="920.167" y="284" width="31" height="31" rx="4.13333" transform="rotate(-90 920.167 284)" fill="#353940"/>
<rect x="955.167" y="191" width="31" height="31" rx="4.13333" transform="rotate(-90 955.167 191)" fill="#353940"/>
<rect x="956" y="157" width="31" height="31" rx="4.13333" transform="rotate(-90 956 157)" fill="#353940"/>
<rect x="513" y="253" width="31" height="31" rx="4.13333" fill="#353940"/>
<rect x="550" y="217" width="31" height="31" rx="4.13333" fill="#353940"/>
<rect x="799" y="274" width="31" height="31" rx="4.13333" fill="#353940"/>
<rect x="643" y="252" width="31" height="31" rx="4.13333" fill="#353940"/>
<rect x="726" y="207" width="31" height="31" rx="4.13333" fill="#353940"/>
<rect x="726" y="243" width="31" height="31" rx="4.13333" fill="#353940"/>
<rect x="513" y="289.167" width="31" height="31" rx="4.13333" fill="#353940"/>
<rect x="550" y="253.167" width="31" height="31" rx="4.13333" fill="#353940"/>
<rect x="643" y="288.167" width="31" height="31" rx="4.13333" fill="#353940"/>
<rect x="677" y="289" width="31" height="31" rx="4.13333" fill="#353940"/>
</svg>
